<?xml version="1.0" encoding="UTF-8"?><svg id="Lag_2" xmlns="http://www.w3.org/2000/svg" viewBox="0 0 231.46 231.46"><defs><style>.cls-1{stroke-dasharray:0 0 9.52 9.52;}.cls-1,.cls-2,.cls-3{fill:none;stroke:#16161d;stroke-miterlimit:10;stroke-width:2px;}.cls-3{stroke-dasharray:0 10;}.cls-4{fill:#16161d;stroke-width:0px;}</style></defs><g id="Lag_1-2"><polygon class="cls-4" points="115.73 37.27 143.47 87.99 194.19 115.73 143.47 143.47 115.73 194.19 87.99 143.47 37.27 115.73 87.99 87.99 115.73 37.27"/><polyline class="cls-2" points="115.73 110.73 115.73 115.73 110.73 115.73"/><line class="cls-1" x1="101.21" y1="115.73" x2="10.76" y2="115.73"/><polyline class="cls-2" points="6 115.73 1 115.73 1 110.73"/><line class="cls-1" x1="1" y1="101.21" x2="1" y2="10.76"/><polyline class="cls-2" points="1 6 1 1 6 1"/><line class="cls-1" x1="15.52" y1="1" x2="105.97" y2="1"/><polyline class="cls-2" points="110.73 1 115.73 1 115.73 6"/><line class="cls-1" x1="115.73" y1="15.52" x2="115.73" y2="105.97"/><polyline class="cls-2" points="230.46 225.46 230.46 230.46 225.46 230.46"/><line class="cls-1" x1="215.94" y1="230.46" x2="125.49" y2="230.46"/><polyline class="cls-2" points="120.73 230.46 115.73 230.46 115.73 225.46"/><line class="cls-1" x1="115.73" y1="215.94" x2="115.73" y2="125.49"/><polyline class="cls-2" points="115.73 120.73 115.73 115.73 120.73 115.73"/><line class="cls-1" x1="130.25" y1="115.73" x2="220.7" y2="115.73"/><polyline class="cls-2" points="225.46 115.73 230.46 115.73 230.46 120.73"/><line class="cls-1" x1="230.46" y1="130.25" x2="230.46" y2="220.7"/><circle class="cls-3" cx="115.73" cy="115.73" r="78.46"/><line class="cls-3" x1="1" y1="1" x2="230.46" y2="230.46"/></g></svg>