<?xml version="1.0" encoding="UTF-8"?><svg id="Lag_2" xmlns="http://www.w3.org/2000/svg" viewBox="0 0 275.22 262.23"><defs><style>.cls-1{fill:none;}.cls-1,.cls-2,.cls-3{stroke-width:0px;}.cls-3{fill:#16161d;}</style></defs><g id="Lag_1-2"><circle class="cls-2" cx="36.46" cy="99.15" r="7.5"/><circle class="cls-2" cx="57.92" cy="99.15" r="7.5"/><path class="cls-3" d="m251.62,65.82H23.59c-13,0-23.59,10.59-23.59,23.59v110.01c0,13,10.59,23.58,23.59,23.58h42.86v-2.07H23.59c-11.86,0-21.52-9.65-21.52-21.51v-110.01c0-11.86,9.66-21.52,21.52-21.52h228.03c11.86,0,21.52,9.66,21.52,21.52v110.01c0,11.86-9.66,21.51-21.52,21.51h-42.86v2.07h42.86c13.01,0,23.59-10.58,23.59-23.58v-110.01c0-13-10.58-23.59-23.59-23.59Z"/><path class="cls-3" d="m64.38,130.43v131.8h146.45v-131.8H64.38Zm144.38,129.73H66.45v-127.66h142.31v127.66Z"/><path class="cls-1" d="m66.45,132.5v127.66h142.31v-127.66H66.45Zm84.68,109.08c-.6.68-1.43,1.11-2.35,1.11h-57.93c-1.83,0-3.32-1.7-3.32-3.78,0-1.05.37-1.99.97-2.68.6-.68,1.43-1.11,2.34-1.11h57.93c1.83,0,3.33,1.7,3.33,3.79,0,1.04-.37,1.99-.97,2.67Zm-62.62-90.5c.6-.68,1.43-1.11,2.34-1.11h57.93c1.83,0,3.33,1.7,3.33,3.78,0,1.05-.37,2-.97,2.68-.6.68-1.43,1.11-2.35,1.11h-57.93c-1.83,0-3.32-1.7-3.32-3.79,0-1.05.37-1.99.97-2.67Zm0,28.39c.6-.68,1.43-1.11,2.34-1.11h94.21c1.83,0,3.32,1.69,3.32,3.78,0,1.05-.37,1.99-.97,2.67-.59.68-1.42,1.11-2.34,1.11h-94.21c-1.83,0-3.32-1.69-3.32-3.78,0-1.05.37-1.99.97-2.67Zm0,28.38c.6-.68,1.43-1.11,2.34-1.11h74.54c1.83,0,3.32,1.7,3.32,3.78,0,1.05-.37,1.99-.97,2.68-.6.68-1.43,1.11-2.34,1.11h-74.54c-1.83,0-3.32-1.7-3.32-3.79,0-1.04.37-1.99.97-2.67Z"/><path class="cls-3" d="m211.18,67.9H64.74V17.85c0-9.84,8.01-17.85,17.85-17.85h110.75c9.84,0,17.85,8.01,17.85,17.85v50.05Zm-144.37-2.07h142.3V17.85c0-8.7-7.08-15.78-15.78-15.78h-110.75c-8.7,0-15.78,7.08-15.78,15.78v47.97Z"/><path class="cls-3" d="m152.11,153.75c0,1.05-.37,2-.97,2.68-.6.68-1.43,1.11-2.35,1.11h-57.93c-1.83,0-3.32-1.7-3.32-3.79,0-1.05.37-1.99.97-2.67s1.43-1.11,2.34-1.11h57.93c1.83,0,3.33,1.7,3.33,3.78Z"/><path class="cls-3" d="m188.38,182.14c0,1.05-.37,1.99-.97,2.67-.59.68-1.42,1.11-2.34,1.11h-94.21c-1.83,0-3.32-1.69-3.32-3.78,0-1.05.37-1.99.97-2.67.6-.68,1.43-1.11,2.34-1.11h94.21c1.83,0,3.32,1.69,3.32,3.78Z"/><path class="cls-3" d="m168.71,210.52c0,1.05-.37,1.99-.97,2.68-.6.68-1.43,1.11-2.34,1.11h-74.54c-1.83,0-3.32-1.7-3.32-3.79,0-1.04.37-1.99.97-2.67s1.43-1.11,2.34-1.11h74.54c1.83,0,3.32,1.7,3.32,3.78Z"/><path class="cls-3" d="m152.11,238.91c0,1.04-.37,1.99-.97,2.67-.6.68-1.43,1.11-2.35,1.11h-57.93c-1.83,0-3.32-1.7-3.32-3.78,0-1.05.37-1.99.97-2.68.6-.68,1.43-1.11,2.34-1.11h57.93c1.83,0,3.33,1.7,3.33,3.79Z"/></g></svg>